<svg xmlns="http://www.w3.org/2000/svg" viewBox="0 0 580.04 1036.52"><defs><style>.cls-1{font-size:80px;}.cls-1,.cls-2,.cls-3,.cls-32,.cls-4,.cls-5{fill:#fff;}.cls-1,.cls-32,.cls-4,.cls-9{font-family:Helvetica-Bold, Helvetica;font-weight:700;}.cls-2{font-size:69px;}.cls-2,.cls-23,.cls-24,.cls-25,.cls-26,.cls-27,.cls-28,.cls-29,.cls-30,.cls-31,.cls-5{font-family:KozGoPr6N-Regular-90ms-RKSJ-H, Kozuka Gothic Pr6N;}.cls-4,.cls-5{font-size:15px;}.cls-30,.cls-6{letter-spacing:0.06em;}.cls-7,.cls-9{letter-spacing:0.07em;}.cls-8{letter-spacing:0.06em;}.cls-10,.cls-25{letter-spacing:0.07em;}.cls-11{letter-spacing:0.05em;}.cls-12{letter-spacing:0em;}.cls-13{letter-spacing:-0.05em;}.cls-14{letter-spacing:-0.01em;}.cls-15,.cls-27{letter-spacing:0.03em;}.cls-16,.cls-28{letter-spacing:0.02em;}.cls-17{letter-spacing:-0.51em;}.cls-18,.cls-24{letter-spacing:0.02em;}.cls-19,.cls-23{letter-spacing:-0.03em;}.cls-20{letter-spacing:-0.1em;}.cls-21{letter-spacing:-0.01em;}.cls-22{letter-spacing:-0.43em;}.cls-23,.cls-24,.cls-25,.cls-26,.cls-27,.cls-28,.cls-29,.cls-30,.cls-31{font-weight:400;}.cls-26{letter-spacing:-0.03em;}.cls-29{letter-spacing:0.05em;}.cls-31{letter-spacing:-0.41em;}.cls-32{font-size:25px;}</style></defs><title>Asset 1</title><g id="Layer_2" data-name="Layer 2"><g id="Layer_1-2" data-name="Layer 1"><text class="cls-1" transform="translate(288.32 320.66)">Z<tspan x="13.32" y="96">I</tspan></text><text class="cls-2"><tspan x="482.25" y="744.46">黄</tspan><tspan x="482.25" y="827.26">色</tspan><tspan x="482.25" y="910.06">い</tspan><tspan x="482.25" y="992.86">顔</tspan></text><text class="cls-1" transform="translate(290.5 667.66)">0<tspan x="0" y="96">1</tspan></text><circle class="cls-3" cx="312.56" cy="512.99" r="15"/><circle class="cls-3" cx="190.56" cy="969.99" r="15"/><text class="cls-4" transform="translate(62.83 288.41) rotate(-90)">MARCH 12 .. 1999</text><text class="cls-5"><tspan class="cls-6"><tspan x="319.69" y="54.9">あ</tspan><tspan class="cls-7" x="335.59" y="54.9">なたは私</tspan><tspan class="cls-8" x="399.79" y="54.9">に</tspan><tspan class="cls-9" x="415.69" y="54.9">2</tspan><tspan class="cls-10" x="425.09" y="54.9">つの道</tspan><tspan class="cls-11" x="473.24" y="54.9">が</tspan><tspan class="cls-12" x="488.99" y="54.9">あ</tspan><tspan class="cls-13" x="503.99" y="54.9">る</tspan><tspan class="cls-14" x="518.24" y="54.9">と</tspan><tspan class="cls-7" x="533.09" y="54.9">言</tspan><tspan class="cls-15" x="549.14" y="54.9">いま</tspan></tspan><tspan class="cls-16" x="332.54" y="96.9">し</tspan><tspan class="cls-6" x="347.84" y="96.9">た</tspan><tspan class="cls-17" x="363.74" y="96.9">、</tspan><tspan class="cls-18" x="371.09" y="96.9">し</tspan><tspan class="cls-19" x="386.39" y="96.9">か</tspan><tspan class="cls-18" x="400.94" y="96.9">し</tspan><tspan class="cls-7" x="416.24" y="96.9">残念</tspan><tspan x="448.34" y="96.9">な</tspan><tspan class="cls-20" x="463.34" y="96.9">こ</tspan><tspan class="cls-21" x="476.84" y="96.9">と</tspan><tspan class="cls-11" x="491.69" y="96.9">に</tspan><tspan class="cls-22" x="507.44" y="96.9">、</tspan><tspan class="cls-6" x="515.99" y="96.9">あ</tspan><tspan class="cls-7" x="531.89" y="96.9">なたは</tspan><tspan class="cls-9"><tspan x="408.94" y="138.9">1</tspan><tspan class="cls-23" x="418.34" y="138.9">つ</tspan><tspan class="cls-24" x="432.89" y="138.9">し</tspan><tspan class="cls-25" x="448.19" y="138.9">か</tspan><tspan class="cls-26" x="464.24" y="138.9">持っ</tspan><tspan class="cls-27" x="493.34" y="138.9">てい</tspan><tspan class="cls-28" x="524.24" y="138.9">ま</tspan><tspan class="cls-29" x="539.54" y="138.9">せ</tspan><tspan class="cls-30" x="555.29" y="138.9">ん</tspan><tspan class="cls-31" x="571.19" y="138.9">。</tspan></tspan></text><text class="cls-32" transform="translate(38.78 57.9)">20~</text><path class="cls-3" d="M58.56,146V81a1.5,1.5,0,0,0-3,0v65a1.5,1.5,0,0,0,3,0Z"/><polygon class="cls-3" points="56.91 83.99 62.56 83.99 59.73 79.09 56.91 74.2 54.08 79.09 51.25 83.99 56.91 83.99"/><text class="cls-1" transform="translate(0 998.05)">DPU</text><text class="cls-1" transform="translate(207.96 998.05)">21</text></g></g></svg>