<svg xmlns="http://www.w3.org/2000/svg" viewBox="0 0 549.34 907.59"><defs><style>.cls-1{font-size:100px;}.cls-1,.cls-10,.cls-2,.cls-4,.cls-8,.cls-9{fill:#fff;}.cls-1,.cls-4{font-family:Helvetica-Bold, Helvetica;font-weight:700;}.cls-2{font-size:20px;}.cls-14,.cls-2{font-family:Helvetica;}.cls-3{letter-spacing:-0.09em;}.cls-4{font-size:28px;}.cls-5{font-size:12px;font-family:Helvetica-Light, Helvetica Light;font-weight:300;}.cls-6{letter-spacing:0.02em;}.cls-7{letter-spacing:-0.04em;}.cls-8{font-size:43px;}.cls-10,.cls-24,.cls-25,.cls-26,.cls-27,.cls-28,.cls-29,.cls-30,.cls-32,.cls-33,.cls-34,.cls-8{font-family:KozGoPr6N-Regular-90ms-RKSJ-H, Kozuka Gothic Pr6N;}.cls-10{font-size:14px;}.cls-11{letter-spacing:-0.01em;}.cls-12,.cls-29{letter-spacing:-0.02em;}.cls-13,.cls-30{letter-spacing:-0.48em;}.cls-15,.cls-27{letter-spacing:-0.03em;}.cls-16,.cls-28{letter-spacing:-0.05em;}.cls-17{letter-spacing:0.02em;}.cls-18{letter-spacing:-0.54em;}.cls-19,.cls-26{letter-spacing:-0.05em;}.cls-20{letter-spacing:-0.11em;}.cls-21{letter-spacing:-0.08em;}.cls-22{letter-spacing:-0.16em;}.cls-23{letter-spacing:0em;}.cls-25,.cls-35{letter-spacing:-0.1em;}.cls-31{letter-spacing:-0.05em;}.cls-32{letter-spacing:-0.02em;}.cls-33{letter-spacing:-0.1em;}.cls-34{letter-spacing:-0.05em;}.cls-36{letter-spacing:-0.13em;}.cls-37{letter-spacing:-0.2em;}.cls-38{letter-spacing:-0.08em;}.cls-39{letter-spacing:-0.11em;}.cls-40{letter-spacing:-0.01em;}.cls-41{letter-spacing:-0.09em;}.cls-42{letter-spacing:-0.04em;}.cls-43{letter-spacing:-0.01em;}</style></defs><title>Asset 1</title><g id="Layer_2" data-name="Layer 2"><g id="Layer_1-2" data-name="Layer 1"><text class="cls-1" transform="translate(115.46 211.17)">Z<tspan x="16.65" y="120">I</tspan></text><text class="cls-2" transform="translate(0 17.17)"><tspan class="cls-3">Y</tspan><tspan x="11.5" y="0">ellow</tspan><tspan x="0" y="24">Face</tspan><tspan x="0" y="48">Group</tspan></text><text class="cls-4" transform="translate(30 657.17)">the Golden Ratio<tspan class="cls-5"><tspan x="0" y="38">exists when a line is divided</tspan><tspan x="0" y="76">into two pa</tspan><tspan class="cls-6" x="58.69" y="76">r</tspan><tspan x="62.91" y="76">ts and the longer </tspan><tspan x="0" y="114">pa</tspan><tspan class="cls-6" x="14" y="114">r</tspan><tspan x="18.22" y="114">t A divided by the smaller</tspan><tspan x="0" y="152">pa</tspan><tspan class="cls-6" x="14" y="152">r</tspan><tspan x="18.22" y="152">t B is equal to the sum of</tspan><tspan x="0" y="190">A + B divided by A, which </tspan><tspan x="0" y="228">both equal 1.618.</tspan></tspan></text><text class="cls-2" transform="translate(27.34 461.96) rotate(-90)">APRI<tspan class="cls-7" x="46.68" y="0">L</tspan><tspan x="57.07" y="0" xml:space="preserve"> 2019</tspan></text><text class="cls-2" transform="translate(513 17.17)">20/</text><text class="cls-8" transform="translate(127 413.17)">黄<tspan x="0" y="51.6">色</tspan><tspan x="0" y="103.2">い</tspan><tspan x="0" y="154.8">顔</tspan></text><text class="cls-1" transform="translate(358.81 211.17)">W<tspan class="cls-7"><tspan x="12.92" y="120">A</tspan></tspan><tspan x="11.08" y="240">N</tspan><tspan x="8.3" y="360">G</tspan></text><path class="cls-9" d="M262.11,189c.46,3.28,1.38,5.74,2.74,7.37q3.73,4.44,12.81,4.44a27.66,27.66,0,0,0,8.83-1.17q6.42-2.25,6.43-8.35a6.17,6.17,0,0,0-3.15-5.52q-3.15-1.9-10-3.37l-7.79-1.7q-11.49-2.55-15.78-5.52-7.27-5-7.28-15.58A20.7,20.7,0,0,1,256,143.5q7.13-6.41,20.91-6.4,11.52,0,19.65,6t8.53,17.51H290.67q-.39-6.49-5.8-9.23a19.84,19.84,0,0,0-9-1.81q-6,0-9.52,2.34a7.43,7.43,0,0,0-3.55,6.55,6.18,6.18,0,0,0,3.5,5.76c1.51.85,4.69,1.84,9.57,3l12.63,3q8.29,1.95,12.44,5.22,6.43,5.08,6.44,14.7a20.65,20.65,0,0,1-7.63,16.38Q292.17,213,278.25,213q-14.21,0-22.35-6.42T247.75,189Z"/><path class="cls-9" d="M248.41,331.17v-72h14.94v27.44h28V259.2h14.94v72H291.33V299h-28v32.13Z"/><path class="cls-9" d="M248.51,379.2h15.28v44.2q0,7.43,1.75,10.83,2.73,6.06,11.88,6t11.82-6Q291,430.82,291,423.4V379.2h15.28v44.24q0,11.47-3.56,17.87Q296.08,453,277.42,453t-25.35-11.72q-3.57-6.39-3.56-17.87Z"/><path class="cls-9" d="M301.15,564.78q-8.16,8.4-23.59,8.4T254,564.78Q243,554.47,243,535.09q0-19.77,10.94-29.69,8.15-8.4,23.58-8.4t23.59,8.4Q312,515.32,312,535.09,312,554.47,301.15,564.78Zm-9.4-10.94q5.25-6.6,5.25-18.75t-5.25-18.73a17.16,17.16,0,0,0-14.19-6.61,17.37,17.37,0,0,0-14.26,6.59Q258,522.92,258,535.09t5.32,18.75a17.4,17.4,0,0,0,14.26,6.59A17.2,17.2,0,0,0,291.75,553.84Z"/><text class="cls-10" transform="translate(305.93 647.68)">黄<tspan class="cls-11" x="14" y="0">金</tspan><tspan x="27.86" y="0">比</tspan><tspan class="cls-12" x="41.86" y="0">は</tspan><tspan class="cls-13" x="55.58" y="0">、</tspan><tspan x="62.86" y="0">線が</tspan><tspan class="cls-14" x="90.86" y="0">2</tspan><tspan x="98.65" y="0">つの部分</tspan><tspan class="cls-11" x="154.65" y="0">に</tspan><tspan x="168.51" y="0">分</tspan><tspan class="cls-15" x="182.51" y="0">割</tspan><tspan class="cls-16" x="196.09" y="0">さ</tspan><tspan class="cls-17" x="209.39" y="0">れ</tspan><tspan class="cls-18" x="223.67" y="0">、</tspan><tspan class="cls-19" x="230.11" y="0">よ</tspan><tspan class="cls-20" x="59.91" y="31">り</tspan><tspan x="72.37" y="31">長い部分</tspan><tspan class="cls-14" x="128.37" y="31">A</tspan><tspan class="cls-21" x="137.43" y="31">を</tspan><tspan class="cls-22" x="150.31" y="31">よ</tspan><tspan class="cls-20" x="162.07" y="31">り</tspan><tspan class="cls-15" x="174.53" y="31">小</tspan><tspan class="cls-16" x="188.11" y="31">さ</tspan><tspan class="cls-23" x="201.41" y="31">な部分</tspan><tspan class="cls-14"><tspan x="22.59" y="62">B</tspan><tspan class="cls-24" x="31.5" y="62">で</tspan><tspan class="cls-25" x="45.5" y="62">割</tspan><tspan class="cls-26" x="58.1" y="62">っ</tspan><tspan class="cls-27" x="71.4" y="62">た</tspan><tspan class="cls-28" x="84.98" y="62">も</tspan><tspan class="cls-24" x="98.28" y="62">の</tspan><tspan class="cls-29" x="112.28" y="62">が</tspan><tspan class="cls-30" x="126" y="62">、</tspan><tspan class="cls-31" x="133.28" y="62">A</tspan><tspan x="141.86" y="62" xml:space="preserve"> + B</tspan><tspan class="cls-32" x="166.87" y="62">を</tspan><tspan x="180.59" y="62">A</tspan><tspan class="cls-24" x="189.51" y="62">で</tspan><tspan class="cls-33" x="203.51" y="62">割</tspan><tspan class="cls-34" x="216.11" y="62">っ</tspan><tspan class="cls-24" x="229.41" y="62">た</tspan></tspan><tspan x="28.75" y="93">値の合計</tspan><tspan class="cls-11" x="84.75" y="93">に</tspan><tspan class="cls-35" x="98.61" y="93">等</tspan><tspan class="cls-36" x="111.21" y="93">し</tspan><tspan class="cls-37" x="123.39" y="93">く</tspan><tspan class="cls-13" x="134.59" y="93">、</tspan><tspan x="141.87" y="93">両</tspan><tspan class="cls-38" x="155.87" y="93">方</tspan><tspan class="cls-39" x="168.75" y="93">と</tspan><tspan class="cls-16" x="181.21" y="93">も</tspan><tspan class="cls-14" x="194.51" y="93">1.618</tspan><tspan class="cls-40" x="229.55" y="93">に</tspan><tspan class="cls-35" x="95.01" y="124">等</tspan><tspan class="cls-19" x="107.61" y="124">し</tspan><tspan x="120.91" y="124">い場合</tspan><tspan class="cls-40" x="162.91" y="124">に</tspan><tspan x="176.77" y="124">存</tspan><tspan class="cls-35" x="190.77" y="124">在</tspan><tspan class="cls-41" x="203.37" y="124">し</tspan><tspan class="cls-42" x="216.11" y="124">ま</tspan><tspan class="cls-43" x="229.55" y="124">す</tspan></text></g></g></svg>